<svg width="194" height="60" viewBox="0 0 194 60" fill="none" xmlns="http://www.w3.org/2000/svg">
<path d="M13.5913 7.89069C14.5658 3.84845 18.1825 1 22.3406 1H181.303C187.127 1 191.417 6.44758 190.052 12.1093L180.409 52.1093C179.434 56.1515 175.817 59 171.659 59H12.6973C6.87337 59 2.58304 53.5524 3.94798 47.8907L13.5913 7.89069Z" fill="#1A1A1A" stroke="white" stroke-width="2"/>
<line x1="87.9609" y1="0.276871" x2="70.9609" y2="59.2769" stroke="white" stroke-width="2"/>
<path d="M27.2009 28.5449H33.1803C33.8252 28.5569 34.0714 28.9393 33.9189 29.6923L33.4969 31.8076C33.4617 31.951 33.4031 32.0945 33.321 32.2379C33.0631 32.6203 32.7465 32.8115 32.3713 32.8115H26.1281L23.7891 42.1694C23.6484 42.6833 23.2967 42.9462 22.7339 42.9582H19.7442C19.5917 42.9582 19.4569 42.9223 19.3397 42.8506C19.0348 42.6474 18.9352 42.3128 19.0407 41.8467L24.1936 21.2666H22.9449C22.8511 21.2666 22.7632 21.2606 22.6811 21.2487C22.2121 21.165 22.0773 20.7407 22.2766 19.9759L22.8394 17.7171C22.8863 17.502 22.9391 17.3406 22.9977 17.233C23.0798 17.0777 23.2615 17 23.5429 17H36.5921C37.2838 17.012 37.5535 17.3944 37.4011 18.1473L36.9438 20.2627C36.9087 20.4061 36.8442 20.5495 36.7504 20.6929C36.4807 21.0754 36.1466 21.2666 35.748 21.2666H29.0123L27.2009 28.5449Z" fill="#F5DE09"/>
<path d="M42.4309 31.7001H46.2471L46.8627 22.4856L42.4309 31.7001ZM40.3732 35.9667L37.3483 42.2769C37.0787 42.8028 36.6331 43.0418 36.0117 42.994L33.2682 42.8865C33.2565 42.8865 33.2331 42.8865 33.1979 42.8865C32.4475 42.8267 32.213 42.3845 32.4944 41.5599L44.2423 18.5059C44.3243 18.3385 44.424 18.1712 44.5412 18.0039C44.9985 17.3824 45.5437 17.0717 46.1768 17.0717L50.2217 17.0359C50.4445 17.0239 50.6496 17.0598 50.8372 17.1434C51.3766 17.3944 51.6286 17.9322 51.5935 18.7568L50.2921 42.1694C50.2217 42.6713 49.87 42.9343 49.2369 42.9582H46.3878C46.3058 42.9582 46.2237 42.9522 46.1416 42.9402C45.6961 42.8446 45.5085 42.5279 45.5788 41.9901L45.9658 35.9667H40.3732Z" fill="#F5DE09"/>
<path d="M71.1497 17C71.8415 17 72.1111 17.3824 71.9587 18.1473L71.5015 20.2627C71.4663 20.4061 71.4018 20.5495 71.308 20.6929C71.0384 21.0754 70.7042 21.2666 70.3056 21.2666H65.2582L60.035 42.1694C59.8943 42.6833 59.5426 42.9462 58.9798 42.9582H55.9549C55.7439 42.9582 55.5563 42.8745 55.3922 42.7072C55.228 42.5399 55.1811 42.3128 55.2515 42.026L60.4395 21.2666H55.0756C54.9935 21.2666 54.9056 21.2606 54.8118 21.2487C54.3546 21.165 54.2197 20.7407 54.4073 19.9759L54.9701 17.7171C55.017 17.5378 55.0697 17.3944 55.1284 17.2868C55.2573 17.0956 55.5563 17 56.0253 17H71.1497Z" fill="#F5DE09"/>
<path d="M90 4H180.151C184.668 4 188.003 8.21527 186.963 12.6113L177.975 50.6113C177.228 53.7694 174.408 56 171.163 56H75L90 4Z" fill="#F5DE09"/>
<path d="M100.69 17C101.185 17 101.65 17.0577 102.085 17.1731C104.475 17.8424 105.635 20.1735 105.564 24.1664C105.552 24.7665 105.27 25.1358 104.717 25.2743L102.138 25.9321C102.009 25.9667 101.862 25.9783 101.697 25.9667C101.191 25.909 100.926 25.6551 100.902 25.2051C100.82 23.2894 100.449 21.9103 99.7898 21.0679C99.7074 21.0679 99.6309 21.0852 99.5603 21.1198C99.2777 21.2814 98.9481 21.6738 98.5714 22.2969C97.7944 23.5548 97.4059 24.7319 97.4059 25.8282C97.4059 26.3706 97.5119 26.7861 97.7238 27.0746C97.9592 27.3746 98.5008 27.64 99.3484 27.8708L99.9841 28.0439C100.632 28.217 101.15 28.4363 101.538 28.7017C102.55 29.4057 103.057 30.7559 103.057 32.7523C103.057 33.7563 102.874 34.7834 102.509 35.8336C101.838 37.7838 100.732 39.4514 99.1895 40.8362C97.5766 42.2787 95.9344 43 94.2627 43C93.3915 43 92.6146 42.8557 91.9318 42.5672C89.954 41.7248 88.9769 39.7572 89.0004 36.6644C89.0004 36.5375 89.0122 36.4048 89.0357 36.2663C89.1417 35.5854 89.4125 35.1758 89.848 35.0373L92.5675 34.1025C92.8147 34.0217 93.0619 33.9871 93.3091 33.9987C93.7329 34.0333 93.9448 34.241 93.9448 34.6218C93.8742 37.3569 94.0508 38.9725 94.4746 39.4687C94.6983 39.4687 94.8984 39.4341 95.075 39.3648C95.4753 39.1687 95.8696 38.8282 96.2581 38.3435C97.1646 37.2126 97.6178 35.8682 97.6178 34.3103C97.6178 33.664 97.5707 33.1909 97.4766 32.8908C97.2647 32.2792 96.6643 31.8522 95.6754 31.6099L95.1103 31.4714C94.8042 31.3906 94.4864 31.281 94.1567 31.1425C92.6263 30.4385 91.8611 29.2787 91.8611 27.6631C91.8611 26.7745 92.0142 25.834 92.3202 24.8415C92.9442 22.822 93.9802 21.0679 95.4282 19.5792C97.0881 17.8597 98.8422 17 100.69 17Z" fill="#1A1A1A"/>
<path d="M110.721 29.4288C110.014 32.0599 109.661 34.2006 109.661 35.8509C109.661 37.6165 110.061 38.4993 110.862 38.4993C111.038 38.4993 111.215 38.4763 111.392 38.4301C111.898 38.2685 112.439 37.7146 113.016 36.7683C113.746 35.522 114.476 33.4794 115.206 30.6405C115.948 27.6747 116.318 25.4474 116.318 23.9587C116.318 22.47 115.948 21.7199 115.206 21.7084C114.358 21.7084 113.628 22.2046 113.016 23.1971C112.275 24.3972 111.509 26.4745 110.721 29.4288ZM105.705 28.3209C106.506 25.2858 107.642 22.7759 109.114 20.7909C110.95 18.3329 113.004 17.1039 115.276 17.1039C115.382 17.1039 115.488 17.1039 115.594 17.1039C117.49 17.2077 118.891 17.7847 119.797 18.8349C120.692 19.8735 121.139 21.6391 121.139 24.1318C121.139 26.1975 120.739 28.7825 119.938 31.8868C119.362 34.1256 118.626 36.0586 117.731 37.6858C115.906 40.9747 113.628 42.6192 110.897 42.6192C109.025 42.6192 107.595 42.1518 106.606 41.217C105.37 40.0169 104.752 37.8877 104.752 34.8296C104.752 32.9139 105.07 30.7443 105.705 28.3209Z" fill="#1A1A1A"/>
<path d="M129.739 42.6884C127.502 42.6884 125.901 42.2037 124.936 41.2344C124.712 41.0151 124.512 40.767 124.335 40.49C123.146 38.7128 123.064 35.8797 124.088 31.9907L127.726 18.1425C127.867 17.6462 128.22 17.3924 128.785 17.3808H131.929C132.082 17.3808 132.217 17.4154 132.335 17.4847C132.641 17.6809 132.741 18.004 132.635 18.4541L129.068 32.3715C128.503 34.5757 128.267 36.1798 128.362 37.1838C128.467 38.3378 129.033 38.9148 130.057 38.9148C130.622 38.9148 131.122 38.7244 131.558 38.3435C132.452 37.5357 133.318 35.5104 134.154 32.2676L137.827 18.1425C137.968 17.6462 138.321 17.3924 138.886 17.3808H141.747C141.9 17.3808 142.035 17.4154 142.153 17.4847C142.459 17.6809 142.559 18.004 142.453 18.4541L138.992 31.8868C138.227 34.8526 137.379 37.1145 136.449 38.6724C134.836 41.3498 132.6 42.6884 129.739 42.6884Z" fill="#1A1A1A"/>
<path d="M145.72 18.1425C145.861 17.6462 146.214 17.3924 146.78 17.3808H149.693C149.929 17.3808 150.146 17.4616 150.347 17.6232C150.394 17.6578 150.441 17.704 150.488 17.7617C150.547 17.8424 150.629 18.0732 150.735 18.4541L153.808 31.7137L157.339 18.1425C157.481 17.6462 157.834 17.3924 158.399 17.3808H161.401C161.542 17.3808 161.678 17.4154 161.807 17.4847C162.125 17.6809 162.225 18.004 162.107 18.4541L156.068 41.6844C155.927 42.1806 155.574 42.4345 155.008 42.4461H152.006C151.759 42.4461 151.583 42.3768 151.477 42.2383C151.383 42.0999 151.312 41.9383 151.265 41.7537L148.051 27.8189L144.449 41.6844C144.307 42.1806 143.954 42.4345 143.389 42.4461H140.387C140.246 42.4461 140.11 42.4115 139.981 42.3422C139.663 42.146 139.563 41.8229 139.681 41.3728L145.72 18.1425Z" fill="#1A1A1A"/>
<path d="M170.795 21.6565C170.795 21.6565 169.371 27.1323 166.522 38.0839C166.734 38.107 167.146 38.1185 167.758 38.1185C169.383 38.107 170.842 35.6143 172.137 30.6405C172.691 28.4363 172.95 26.4687 172.914 24.7377C172.867 22.972 172.514 21.9969 171.855 21.8123C171.608 21.743 171.254 21.6911 170.795 21.6565ZM165.886 21.8296C165.615 21.8642 165.356 21.9046 165.109 21.9507C164.509 22.0661 164.179 22.1238 164.12 22.1238C164.003 22.1238 163.891 22.1008 163.785 22.0546C163.443 21.9161 163.308 21.6161 163.379 21.1545L163.732 18.4194C163.802 18.0848 164.073 17.854 164.544 17.727C164.568 17.727 164.603 17.7213 164.65 17.7097C166.487 17.3289 168.453 17.1385 170.548 17.1385C172.114 17.1385 173.444 17.4039 174.539 17.9348C176.846 19.0542 178 21.2583 178 24.5473C178 26.613 177.623 29.0595 176.87 31.8868C176.387 33.6755 175.793 35.2681 175.086 36.6644C173.073 40.6112 170.348 42.5846 166.91 42.5846C166.84 42.5846 166.757 42.5846 166.663 42.5846C164.368 42.5846 162.778 42.5038 161.895 42.3422C161.742 42.3076 161.607 42.2672 161.489 42.221C160.936 41.9902 160.765 41.4652 160.977 40.6458L165.886 21.8296Z" fill="#1A1A1A"/>
</svg>
